0
SECTION
2
HEADER
9
$INSUNITS
70
4
9
$ACADVER
1
AC1014
9
$HANDSEED
5
FFFF
0
ENDSEC
0
SECTION
2
TABLES
0
TABLE
2
VPORT
5
8
100
AcDbSymbolTable
0
ENDTAB
0
TABLE
2
LTYPE
5
5
100
AcDbSymbolTable
0
LTYPE
5
14
100
AcDbSymbolTableRecord
100
AcDbLinetypeTableRecord
2
BYBLOCK
70
0
0
LTYPE
5
15
100
AcDbSymbolTableRecord
100
AcDbLinetypeTableRecord
2
BYLAYER
70
0
0
ENDTAB
0
TABLE
2
LAYER
5
2
100
AcDbSymbolTable
70
2
0
LAYER
5
50
100
AcDbSymbolTableRecord
100
AcDbLayerTableRecord
2
0
70
0
6
CONTINUOUS
0
ENDTAB
0
TABLE
2
STYLE
5
3
100
AcDbSymbolTable
70
1
0
STYLE
5
11
100
AcDbSymbolTableRecord
100
AcDbTextStyleTableRecord
2
STANDARD
70
0
0
ENDTAB
0
TABLE
2
VIEW
5
6
100
AcDbSymbolTable
70
0
0
ENDTAB
0
TABLE
2
UCS
5
7
100
AcDbSymbolTable
70
0
0
ENDTAB
0
TABLE
2
APPID
5
9
100
AcDbSymbolTable
70
2
0
APPID
5
12
100
AcDbSymbolTableRecord
100
AcDbRegAppTableRecord
2
ACAD
70
0
0
ENDTAB
0
TABLE
2
DIMSTYLE
5
A
100
AcDbSymbolTable
70
1
0
ENDTAB
0
TABLE
2
BLOCK_RECORD
5
1
100
AcDbSymbolTable
70
1
0
BLOCK_RECORD
5
1F
100
AcDbSymbolTableRecord
100
AcDbBlockTableRecord
2
*MODEL_SPACE
0
BLOCK_RECORD
5
1B
100
AcDbSymbolTableRecord
100
AcDbBlockTableRecord
2
*PAPER_SPACE
0
ENDTAB
0
ENDSEC
0
SECTION
2
BLOCKS
0
BLOCK
5
20
100
AcDbEntity
100
AcDbBlockBegin
2
*MODEL_SPACE
0
ENDBLK
5
21
100
AcDbEntity
100
AcDbBlockEnd
0
BLOCK
5
1C
100
AcDbEntity
100
AcDbBlockBegin
2
*PAPER_SPACE
0
ENDBLK
5
1D
100
AcDbEntity
100
AcDbBlockEnd
0
ENDSEC
0
SECTION
2
ENTITIES
0
LWPOLYLINE
5
100
100
AcDbEntity
8
0
100
AcDbPolyline
90
4
70
1
43
0.0
10
225.89200000000002
20
16.858100000000004
10
211.893
20
16.858100000000004
10
211.893
20
2.8586400000000003
10
225.89200000000002
20
2.8586400000000012
0
LWPOLYLINE
5
101
100
AcDbEntity
8
0
100
AcDbPolyline
90
4
70
1
43
0.0
10
187.892
20
2.8586400000000012
10
187.892
20
16.858100000000004
10
173.89299999999997
20
16.858100000000004
10
173.89299999999997
20
2.8586400000000003
0
LWPOLYLINE
5
102
100
AcDbEntity
8
0
100
AcDbPolyline
90
4
70
1
43
0.0
10
97.893300000000011
20
21.858599999999999
10
111.89400000000001
20
21.858599999999999
10
111.89400000000001
20
35.857999999999997
10
97.893300000000011
20
35.857999999999997
0
LWPOLYLINE
5
103
100
AcDbEntity
8
0
100
AcDbPolyline
90
4
70
1
43
0.0
10
92.894000000000005
20
35.857999999999997
10
78.8947
20
35.857999999999997
10
78.8947
20
21.858599999999999
10
92.894000000000005
20
21.858599999999999
0
LWPOLYLINE
5
104
100
AcDbEntity
8
0
100
AcDbPolyline
90
4
70
1
43
0.0
10
135.89300000000003
20
35.857999999999997
10
135.89300000000003
20
21.858599999999999
10
149.892
20
21.858599999999999
10
149.892
20
35.857999999999997
0
LWPOLYLINE
5
105
100
AcDbEntity
8
0
100
AcDbPolyline
90
4
70
1
43
0.0
10
54.893999999999998
20
16.858100000000004
10
40.8947
20
16.858100000000004
10
40.8947
20
2.8586400000000003
10
54.893999999999998
20
2.8586400000000012
0
LWPOLYLINE
5
106
100
AcDbEntity
8
0
100
AcDbPolyline
90
4
70
1
43
0.0
10
21.8947
20
16.858100000000004
10
21.8947
20
2.8586400000000003
10
35.894000000000005
20
2.8586400000000012
10
35.894000000000005
20
16.858100000000004
0
LWPOLYLINE
5
107
100
AcDbEntity
8
0
100
AcDbPolyline
90
4
70
1
43
0.0
10
192.893
20
2.8586400000000003
10
206.89200000000002
20
2.858639999999999
10
206.89200000000002
20
16.858100000000004
10
192.893
20
16.858100000000004
0
LWPOLYLINE
5
108
100
AcDbEntity
8
0
100
AcDbPolyline
90
4
70
1
43
0.0
10
206.89200000000002
20
21.858599999999999
10
206.89200000000002
20
35.857999999999997
10
192.893
20
35.857999999999997
10
192.893
20
21.858599999999999
0
LWPOLYLINE
5
109
100
AcDbEntity
8
0
100
AcDbPolyline
90
4
70
1
43
0.0
10
187.892
20
35.857999999999997
10
173.89299999999997
20
35.857999999999997
10
173.89299999999997
20
21.858599999999999
10
187.892
20
21.858599999999999
0
LWPOLYLINE
5
110
100
AcDbEntity
8
0
100
AcDbPolyline
90
4
70
1
43
0.0
10
211.893
20
21.858599999999999
10
225.89200000000002
20
21.858599999999999
10
225.89200000000002
20
35.857999999999997
10
211.893
20
35.857999999999997
0
LWPOLYLINE
5
111
100
AcDbEntity
8
0
100
AcDbPolyline
90
4
70
1
43
0.0
10
168.89200000000002
20
21.858599999999999
10
168.89200000000002
20
35.857999999999997
10
154.89300000000003
20
35.857999999999997
10
154.89300000000003
20
21.858599999999999
0
LWPOLYLINE
5
112
100
AcDbEntity
8
0
100
AcDbPolyline
90
4
70
1
43
0.0
10
130.89400000000001
20
21.858599999999999
10
130.89400000000001
20
35.857999999999997
10
116.89300000000001
20
35.857999999999997
10
116.89300000000001
20
21.858599999999999
0
LWPOLYLINE
5
113
100
AcDbEntity
8
0
100
AcDbPolyline
90
4
70
1
43
0.0
10
2.8946499999999995
20
16.858100000000004
10
2.8946499999999986
20
2.8586400000000003
10
16.894200000000001
20
2.8586400000000012
10
16.894200000000001
20
16.858100000000004
0
LWPOLYLINE
5
114
100
AcDbEntity
8
0
100
AcDbPolyline
90
4
70
1
43
0.0
10
59.894700000000007
20
35.857999999999997
10
59.894700000000007
20
21.858599999999999
10
73.893999999999991
20
21.858599999999999
10
73.893999999999991
20
35.857999999999997
0
LWPOLYLINE
5
115
100
AcDbEntity
8
0
100
AcDbPolyline
90
4
70
1
43
0.0
10
54.893999999999998
20
35.857999999999997
10
40.8947
20
35.857999999999997
10
40.8947
20
21.858599999999999
10
54.893999999999998
20
21.858599999999999
0
LWPOLYLINE
5
116
100
AcDbEntity
8
0
100
AcDbPolyline
90
4
70
1
43
0.0
10
2.8946499999999986
20
21.858599999999999
10
16.894200000000001
20
21.858599999999999
10
16.894200000000001
20
35.857999999999997
10
2.8946499999999995
20
35.857999999999997
0
LWPOLYLINE
5
117
100
AcDbEntity
8
0
100
AcDbPolyline
90
4
70
1
43
0.0
10
225.89200000000002
20
73.858099999999993
10
211.893
20
73.858099999999993
10
211.893
20
59.858800000000002
10
225.89200000000002
20
59.858800000000002
0
LWPOLYLINE
5
118
100
AcDbEntity
8
0
100
AcDbPolyline
90
4
70
1
43
0.0
10
59.894700000000007
20
40.858799999999995
10
73.893999999999991
20
40.858799999999995
10
73.893999999999991
20
54.8581
10
59.894700000000007
20
54.8581
0
LWPOLYLINE
5
119
100
AcDbEntity
8
0
100
AcDbPolyline
90
4
70
1
43
0.0
10
21.8947
20
54.8581
10
21.8947
20
40.858799999999995
10
35.894000000000005
20
40.858799999999995
10
35.894000000000005
20
54.8581
0
LWPOLYLINE
5
120
100
AcDbEntity
8
0
100
AcDbPolyline
90
4
70
1
43
0.0
10
192.893
20
40.858799999999995
10
206.89200000000002
20
40.858799999999995
10
206.89200000000002
20
54.8581
10
192.893
20
54.8581
0
LWPOLYLINE
5
121
100
AcDbEntity
8
0
100
AcDbPolyline
90
4
70
1
43
0.0
10
206.89200000000002
20
73.858099999999993
10
192.893
20
73.858099999999993
10
192.893
20
59.858800000000002
10
206.89200000000002
20
59.858800000000002
0
LWPOLYLINE
5
122
100
AcDbEntity
8
0
100
AcDbPolyline
90
4
70
1
43
0.0
10
21.8947
20
21.858599999999999
10
35.894000000000005
20
21.858599999999999
10
35.894000000000005
20
35.857999999999997
10
21.8947
20
35.857999999999997
0
LWPOLYLINE
5
123
100
AcDbEntity
8
0
100
AcDbPolyline
90
4
70
1
43
0.0
10
187.892
20
40.858799999999995
10
187.892
20
54.8581
10
173.89299999999997
20
54.8581
10
173.89299999999997
20
40.858799999999995
0
LWPOLYLINE
5
124
100
AcDbEntity
8
0
100
AcDbPolyline
90
4
70
1
43
0.0
10
149.892
20
54.8581
10
135.89300000000003
20
54.8581
10
135.89300000000003
20
40.858799999999995
10
149.892
20
40.858799999999995
0
LWPOLYLINE
5
125
100
AcDbEntity
8
0
100
AcDbPolyline
90
4
70
1
43
0.0
10
111.89400000000001
20
54.8581
10
97.893300000000011
20
54.8581
10
97.893300000000011
20
40.858799999999995
10
111.89400000000001
20
40.858799999999995
0
LWPOLYLINE
5
126
100
AcDbEntity
8
0
100
AcDbPolyline
90
4
70
1
43
0.0
10
130.89400000000001
20
40.858799999999995
10
130.89400000000001
20
54.8581
10
116.89300000000001
20
54.8581
10
116.89300000000001
20
40.858799999999995
0
LWPOLYLINE
5
127
100
AcDbEntity
8
0
100
AcDbPolyline
90
4
70
1
43
0.0
10
2.8946499999999995
20
54.8581
10
2.8946499999999986
20
40.858799999999995
10
16.894200000000001
20
40.858799999999995
10
16.894200000000001
20
54.8581
0
LWPOLYLINE
5
128
100
AcDbEntity
8
0
100
AcDbPolyline
90
4
70
1
43
0.0
10
211.893
20
54.8581
10
211.893
20
40.858799999999995
10
225.89200000000002
20
40.858799999999995
10
225.89200000000002
20
54.8581
0
LWPOLYLINE
5
129
100
AcDbEntity
8
0
100
AcDbPolyline
90
4
70
1
43
0.0
10
54.893999999999998
20
54.8581
10
40.8947
20
54.8581
10
40.8947
20
40.858799999999995
10
54.893999999999998
20
40.858799999999995
0
LWPOLYLINE
5
130
100
AcDbEntity
8
0
100
AcDbPolyline
90
4
70
1
43
0.0
10
78.8947
20
54.8581
10
78.8947
20
40.858799999999995
10
92.894000000000005
20
40.858799999999995
10
92.894000000000005
20
54.8581
0
LWPOLYLINE
5
131
100
AcDbEntity
8
0
100
AcDbPolyline
90
4
70
1
43
0.0
10
168.89200000000002
20
40.858799999999995
10
168.89200000000002
20
54.8581
10
154.89300000000003
20
54.8581
10
154.89300000000003
20
40.858799999999995
0
LWPOLYLINE
5
132
100
AcDbEntity
8
0
100
AcDbPolyline
90
4
70
1
43
0.0
10
21.8947
20
73.858099999999993
10
21.8947
20
59.858800000000002
10
35.894000000000005
20
59.858800000000002
10
35.894000000000005
20
73.858099999999993
0
LWPOLYLINE
5
133
100
AcDbEntity
8
0
100
AcDbPolyline
90
4
70
1
43
0.0
10
135.89300000000003
20
59.858800000000002
10
149.892
20
59.858800000000002
10
149.892
20
73.858099999999993
10
135.89300000000003
20
73.858099999999993
0
LWPOLYLINE
5
134
100
AcDbEntity
8
0
100
AcDbPolyline
90
4
70
1
43
0.0
10
40.8947
20
73.858099999999993
10
40.8947
20
59.858800000000002
10
54.893999999999998
20
59.858800000000002
10
54.893999999999998
20
73.858099999999993
0
LWPOLYLINE
5
135
100
AcDbEntity
8
0
100
AcDbPolyline
90
4
70
1
43
0.0
10
173.89299999999997
20
59.858800000000002
10
187.892
20
59.858800000000002
10
187.892
20
73.858099999999993
10
173.89299999999997
20
73.858099999999993
0
LWPOLYLINE
5
136
100
AcDbEntity
8
0
100
AcDbPolyline
90
4
70
1
43
0.0
10
154.89300000000003
20
73.858099999999993
10
154.89300000000003
20
59.858800000000002
10
168.89200000000002
20
59.858800000000002
10
168.89200000000002
20
73.858099999999993
0
LWPOLYLINE
5
137
100
AcDbEntity
8
0
100
AcDbPolyline
90
4
70
1
43
0.0
10
78.8947
20
59.858800000000002
10
92.894000000000005
20
59.858800000000002
10
92.894000000000005
20
73.858099999999993
10
78.8947
20
73.858099999999993
0
LWPOLYLINE
5
138
100
AcDbEntity
8
0
100
AcDbPolyline
90
4
70
1
43
0.0
10
97.893300000000011
20
73.858099999999993
10
97.893300000000011
20
59.858800000000002
10
111.89400000000001
20
59.858800000000002
10
111.89400000000001
20
73.858099999999993
0
LWPOLYLINE
5
139
100
AcDbEntity
8
0
100
AcDbPolyline
90
4
70
1
43
0.0
10
130.89400000000001
20
59.858800000000002
10
130.89400000000001
20
73.858099999999993
10
116.89300000000001
20
73.858099999999993
10
116.89300000000001
20
59.858800000000002
0
LWPOLYLINE
5
140
100
AcDbEntity
8
0
100
AcDbPolyline
90
4
70
1
43
0.0
10
73.893999999999991
20
73.858099999999993
10
59.894700000000007
20
73.858099999999993
10
59.894700000000007
20
59.858800000000002
10
73.893999999999991
20
59.858800000000002
0
LWPOLYLINE
5
141
100
AcDbEntity
8
0
100
AcDbPolyline
90
4
70
1
43
0.0
10
16.894200000000001
20
73.858099999999993
10
2.8946499999999995
20
73.858099999999993
10
2.8946499999999986
20
59.858800000000002
10
16.894200000000001
20
59.858800000000002
0
LINE
5
142
100
AcDbEntity
8
0
100
AcDbLine
10
225.870265925458
20
-2.1913132304768728
30
0
11
226.21899999999999
21
-2.2663599999999997
31
0
0
LWPOLYLINE
5
143
100
AcDbEntity
8
0
100
AcDbPolyline
90
8
70
1
43
0.0
10
2.56965000000001
20
-2.2663599999999997
10
226.21899999999999
20
-2.2663599999999997
42
0.41421356237309503
10
231.21899999999999
20
2.7336399999999994
10
231.21899999999999
20
73.983099999999993
42
0.41421356237309503
10
226.21899999999999
20
78.983099999999993
10
2.5696500000000002
20
78.983099999999993
42
0.41421356237309503
10
-2.4303499999999998
20
73.983099999999993
10
-2.43034999999999
20
2.7336400000000003
42
0.41421356237309503
0
CIRCLE
5
144
100
AcDbEntity
8
0
100
AcDbCircle
10
0.801883047033633
20
75.750866952966362
30
0
40
1.1000000000000003
210
0
220
0
230
1
0
CIRCLE
5
145
100
AcDbEntity
8
0
100
AcDbCircle
10
227.98676695296638
20
75.750866952966362
30
0
40
1.0999999999999952
210
0
220
0
230
1
0
CIRCLE
5
146
100
AcDbEntity
8
0
100
AcDbCircle
10
0.80188304703364077
20
0.9658730470336313
30
0
40
1.1000000000000001
210
0
220
0
230
1
0
CIRCLE
5
147
100
AcDbEntity
8
0
100
AcDbCircle
10
227.98676695296635
20
0.96587304703362853
30
0
40
1.1000000000000001
210
0
220
0
230
1
0
CIRCLE
5
148
100
AcDbEntity
8
0
100
AcDbCircle
10
171.39250000000001
20
19.358350000000002
30
0
40
1.1000000000000079
210
0
220
0
230
1
0
CIRCLE
5
149
100
AcDbEntity
8
0
100
AcDbCircle
10
171.39250000000001
20
57.358449999999991
30
0
40
1.1000000000000032
210
0
220
0
230
1
0
CIRCLE
5
150
100
AcDbEntity
8
0
100
AcDbCircle
10
209.39250000000001
20
38.358399999999996
30
0
40
1.0999999999999943
210
0
220
0
230
1
0
CIRCLE
5
151
100
AcDbEntity
8
0
100
AcDbCircle
10
114.39350000000002
20
57.358449999999991
30
0
40
1.0999999999999943
210
0
220
0
230
1
0
CIRCLE
5
152
100
AcDbEntity
8
0
100
AcDbCircle
10
114.39350000000002
20
19.358350000000002
30
0
40
1.1000000000000019
210
0
220
0
230
1
0
CIRCLE
5
153
100
AcDbEntity
8
0
100
AcDbCircle
10
57.394350000000003
20
57.358449999999991
30
0
40
1.1000000000000032
210
0
220
0
230
1
0
CIRCLE
5
154
100
AcDbEntity
8
0
100
AcDbCircle
10
57.394350000000003
20
19.358350000000002
30
0
40
1.1000000000000023
210
0
220
0
230
1
0
CIRCLE
5
155
100
AcDbEntity
8
0
100
AcDbCircle
10
19.394449999999999
20
38.358399999999996
30
0
40
1.0999999999999988
210
0
220
0
230
1
0
LWPOLYLINE
5
156
100
AcDbEntity
8
0
100
AcDbPolyline
90
8
70
1
43
0.0
10
68.668000000000006
20
2.8586400000000007
10
68.415368635252904
20
2.8586400000000007
10
65.115695340816288
20
2.8586400000000007
10
59.894700000000007
20
2.8586400000000012
10
59.894700000000007
20
16.858100000000004
10
73.893999999999977
20
16.858100000000004
10
73.893999999999991
20
2.8539536067162108
10
72.34435000000002
20
2.8539536067162108
0
LINE
5
157
100
AcDbEntity
8
0
100
AcDbLine
10
107.28789068163259
20
1.8835000000000002
30
0
11
108.93789068163258
21
1.8835000000000002
31
0
0
LINE
5
158
100
AcDbEntity
8
0
100
AcDbLine
10
119.84350000000001
20
1.8835000000000002
30
0
11
123.14350000000003
21
1.8835000000000002
31
0
0
LINE
5
159
100
AcDbEntity
8
0
100
AcDbLine
10
124.64500000000001
20
1.8835000000000002
30
0
11
127.94400000000003
21
1.8835000000000002
31
0
0
LINE
5
160
100
AcDbEntity
8
0
100
AcDbLine
10
87.469349999999991
20
2.8559474661451389
30
0
11
87.469349999999991
21
2.8586400000000007
31
0
0
LINE
5
161
100
AcDbEntity
8
0
100
AcDbLine
10
87.469499999999982
20
1.8834999999999993
30
0
11
87.469349999999991
21
2.8559474661451389
31
0
0
LINE
5
162
100
AcDbEntity
8
0
100
AcDbLine
10
104.14400000000001
20
2.8585400000000005
30
0
11
105.6378906816326
21
2.8534005063285335
31
0
0
LINE
5
163
100
AcDbEntity
8
0
100
AcDbLine
10
144.619
20
1.8834999999999993
30
0
11
146.94349973332544
21
1.8834999999999993
31
0
0
LINE
5
164
100
AcDbEntity
8
0
100
AcDbLine
10
81.836779222761592
20
1.8853862841212568
30
0
11
87.469499999999982
21
1.8834999999999993
31
0
0
LINE
5
165
100
AcDbEntity
8
0
100
AcDbLine
10
87.469499999999982
20
2.8562773154985366
30
0
11
87.469349999999991
21
2.856276910698222
31
0
0
LINE
5
166
100
AcDbEntity
8
0
100
AcDbLine
10
146.94349973332544
20
1.8834999999999993
30
0
11
146.94349973332544
21
2.8583216792199644
31
0
0
LINE
5
167
100
AcDbEntity
8
0
100
AcDbLine
10
87.469349999999991
20
2.8586400000000007
30
0
11
100.845
21
2.8586400000000007
31
0
0
LINE
5
168
100
AcDbEntity
8
0
100
AcDbLine
10
127.94400000000003
20
1.8835000000000002
30
0
11
127.94400000000003
21
2.8586400000000007
31
0
0
LINE
5
169
100
AcDbEntity
8
0
100
AcDbLine
10
127.94400000000003
20
2.8586400000000007
30
0
11
141.31899999999999
21
2.8586400000000007
31
0
0
LINE
5
170
100
AcDbEntity
8
0
100
AcDbLine
10
104.14400000000001
20
2.8586400000000007
30
0
11
104.14400000000001
21
2.8585400000000005
31
0
0
LINE
5
171
100
AcDbEntity
8
0
100
AcDbLine
10
123.14350000000003
20
1.8835000000000002
30
0
11
123.14350000000003
21
2.8586400000000007
31
0
0
LINE
5
172
100
AcDbEntity
8
0
100
AcDbLine
10
123.19400000000002
20
2.8586400000000007
30
0
11
124.64500000000001
21
2.8586400000000007
31
0
0
LINE
5
173
100
AcDbEntity
8
0
100
AcDbLine
10
100.845
20
2.8586400000000007
30
0
11
100.845
21
1.8835000000000002
31
0
0
LINE
5
174
100
AcDbEntity
8
0
100
AcDbLine
10
104.14400000000001
20
1.8835000000000002
30
0
11
104.14400000000001
21
2.8586400000000007
31
0
0
LINE
5
175
100
AcDbEntity
8
0
100
AcDbLine
10
123.19400000000002
20
2.8586400000000007
30
0
11
124.64500000000001
21
2.8586400000000007
31
0
0
LINE
5
176
100
AcDbEntity
8
0
100
AcDbLine
10
124.64500000000001
20
2.8586400000000007
30
0
11
124.64500000000001
21
1.8835000000000002
31
0
0
LINE
5
177
100
AcDbEntity
8
0
100
AcDbLine
10
105.6378906816326
20
1.8835000000000002
30
0
11
107.28789068163259
21
1.8835000000000002
31
0
0
LINE
5
178
100
AcDbEntity
8
0
100
AcDbLine
10
141.31899999999999
20
1.8834999999999993
30
0
11
144.619
21
1.8834999999999993
31
0
0
LINE
5
179
100
AcDbEntity
8
0
100
AcDbLine
10
108.93789068163258
20
1.8835000000000002
30
0
11
108.93789068163258
21
2.8586400000000007
31
0
0
LINE
5
180
100
AcDbEntity
8
0
100
AcDbLine
10
123.14350000000003
20
2.8586400000000007
30
0
11
123.19400000000002
21
2.8586400000000007
31
0
0
LINE
5
181
100
AcDbEntity
8
0
100
AcDbLine
10
119.84350000000001
20
2.8586400000000007
30
0
11
119.84350000000001
21
1.8835000000000002
31
0
0
LINE
5
182
100
AcDbEntity
8
0
100
AcDbLine
10
141.31899999999999
20
2.8586400000000007
30
0
11
141.31899999999999
21
1.8834999999999993
31
0
0
LINE
5
183
100
AcDbEntity
8
0
100
AcDbLine
10
100.845
20
1.8835000000000002
30
0
11
104.14400000000001
21
1.8835000000000002
31
0
0
LINE
5
184
100
AcDbEntity
8
0
100
AcDbLine
10
149.96899999999999
20
16.858100000000004
30
0
11
78.818299999999994
21
16.858100000000004
31
0
0
LINE
5
185
100
AcDbEntity
8
0
100
AcDbLine
10
108.93789068163258
20
2.8586400000000007
30
0
11
119.84350000000001
21
2.8586400000000007
31
0
0
LINE
5
186
100
AcDbEntity
8
0
100
AcDbLine
10
81.837891794238686
20
2.8585909659296123
30
0
11
81.836779222761592
21
1.8853862841212568
31
0
0
LINE
5
187
100
AcDbEntity
8
0
100
AcDbLine
10
105.6378906816326
20
2.8534005063285335
30
0
11
105.6378906816326
21
1.8835000000000002
31
0
0
LINE
5
188
100
AcDbEntity
8
0
100
AcDbLine
10
146.94349973332544
20
2.8583216792199644
30
0
11
149.89348684208582
21
2.8585525294319307
31
0
0
LINE
5
189
100
AcDbEntity
8
0
100
AcDbLine
10
149.89239131238287
20
16.858100000000004
30
0
11
149.89348684208582
21
2.8585525294319307
31
0
0
LWPOLYLINE
5
190
100
AcDbEntity
8
0
100
AcDbPolyline
90
4
70
1
43
0.0
10
168.89200000000002
20
2.8585999999999978
10
168.89200000000002
20
16.858599999999999
10
154.89300000000003
20
16.858599999999999
10
154.89300000000003
20
2.8586
0
LINE
5
191
100
AcDbEntity
8
0
100
AcDbLine
10
78.8947
20
16.858100000000004
30
0
11
78.8947
21
2.8587506900015076
31
0
0
LINE
5
192
100
AcDbEntity
8
0
100
AcDbLine
10
81.837891794238686
20
2.8585909659296123
30
0
11
78.8947
21
2.8587506900015076
31
0
0
ENDSEC
0
SECTION
2
OBJECTS
0
DICTIONARY
5
C
100
AcDbDictionary
3
ACAD_GROUP
350
D
3
ACAD_MLINESTYLE
350
17
0
DICTIONARY
5
D
100
AcDbDictionary
0
DICTIONARY
5
1A
330
C
100
AcDbDictionary
0
DICTIONARY
5
17
100
AcDbDictionary
0
ENDSEC
0
EOF
